<svg width="16" height="12" viewBox="0 0 16 12" fill="none" xmlns="http://www.w3.org/2000/svg">
<path d="M8.00016 3.50001C7.5057 3.50001 7.02235 3.64663 6.61123 3.92133C6.20011 4.19604 5.87968 4.58648 5.69046 5.0433C5.50124 5.50011 5.45173 6.00278 5.54819 6.48773C5.64466 6.97269 5.88276 7.41814 6.23239 7.76777C6.58202 8.11741 7.02748 8.35551 7.51243 8.45197C7.99738 8.54843 8.50005 8.49893 8.95686 8.30971C9.41368 8.12049 9.80413 7.80006 10.0788 7.38893C10.3535 6.97781 10.5002 6.49446 10.5002 6.00001C10.5002 5.33697 10.2368 4.70108 9.76792 4.23224C9.29908 3.7634 8.6632 3.50001 8.00016 3.50001ZM8.00016 7.50001C7.70348 7.50001 7.41347 7.41203 7.1668 7.24721C6.92013 7.08239 6.72787 6.84812 6.61434 6.57403C6.5008 6.29994 6.4711 5.99834 6.52898 5.70737C6.58686 5.4164 6.72972 5.14913 6.9395 4.93935C7.14927 4.72957 7.41655 4.58671 7.70752 4.52883C7.99849 4.47095 8.30009 4.50066 8.57418 4.61419C8.84827 4.72772 9.08254 4.91998 9.24736 5.16665C9.41218 5.41333 9.50016 5.70334 9.50016 6.00001C9.50016 6.39783 9.34212 6.77936 9.06082 7.06067C8.77951 7.34197 8.39798 7.50001 8.00016 7.50001ZM12.607 7.94626C12.3922 8.45412 12.0949 8.92295 11.727 9.33376C11.638 9.43013 11.5146 9.48763 11.3835 9.49384C11.2524 9.50005 11.1241 9.45447 11.0264 9.36694C10.9286 9.27942 10.8691 9.15696 10.8608 9.02599C10.8525 8.89502 10.8961 8.76604 10.982 8.66688C11.6386 7.93385 12.0016 6.98438 12.0016 6.00032C12.0016 5.01626 11.6386 4.06679 10.982 3.33376C10.937 3.28504 10.9021 3.22786 10.8794 3.16554C10.8567 3.10322 10.8467 3.037 10.8498 2.97074C10.8529 2.90449 10.8692 2.83952 10.8977 2.77962C10.9262 2.71972 10.9663 2.66609 11.0157 2.62185C11.0652 2.57761 11.1229 2.54365 11.1856 2.52194C11.2483 2.50023 11.3146 2.49121 11.3808 2.4954C11.447 2.49959 11.5117 2.51691 11.5712 2.54635C11.6306 2.57579 11.6836 2.61676 11.727 2.66688C12.3584 3.37334 12.7762 4.2445 12.932 5.17906C13.0878 6.11362 12.9751 7.07321 12.607 7.94626ZM4.31266 4.44313C4.01764 5.14149 3.92716 5.9093 4.05176 6.6571C4.17636 7.40491 4.5109 8.10191 5.01641 8.66688C5.10237 8.76604 5.1459 8.89502 5.1376 9.02599C5.12931 9.15696 5.06986 9.27942 4.97208 9.36694C4.8743 9.45447 4.74603 9.50005 4.61495 9.49384C4.48386 9.48763 4.36047 9.43013 4.27141 9.33376C3.45052 8.41748 2.9966 7.23053 2.9966 6.00032C2.9966 4.77011 3.45052 3.58316 4.27141 2.66688C4.35984 2.56784 4.48399 2.50799 4.61656 2.50048C4.74912 2.49298 4.87924 2.53845 4.97828 2.62688C5.07732 2.71532 5.13718 2.83947 5.14468 2.97204C5.15218 3.1046 5.10671 3.23472 5.01828 3.33376C4.72328 3.66194 4.48483 4.03683 4.31266 4.44313ZM15.5002 6.00001C15.5032 7.96359 14.7333 9.84949 13.357 11.25C13.3115 11.2987 13.2567 11.3378 13.1958 11.365C13.135 11.3922 13.0693 11.4069 13.0026 11.4083C12.936 11.4098 12.8697 11.3979 12.8078 11.3733C12.7458 11.3488 12.6894 11.3121 12.6418 11.2654C12.5942 11.2188 12.5564 11.163 12.5307 11.1016C12.5049 11.0401 12.4917 10.9741 12.4919 10.9074C12.492 10.8407 12.5055 10.7748 12.5315 10.7134C12.5575 10.652 12.5955 10.5965 12.6433 10.55C13.835 9.33586 14.5026 7.70253 14.5026 6.00126C14.5026 4.29999 13.835 2.66666 12.6433 1.45251C12.5501 1.35786 12.4984 1.23008 12.4994 1.09728C12.5005 0.964481 12.5543 0.83754 12.6489 0.744382C12.7436 0.651225 12.8713 0.599482 13.0041 0.600537C13.1369 0.601592 13.2639 0.655358 13.357 0.750007C14.7333 2.15053 15.5032 4.03642 15.5002 6.00001ZM3.35703 10.5488C3.40308 10.5956 3.43944 10.6511 3.46404 10.712C3.48865 10.7729 3.50101 10.8381 3.50043 10.9038C3.49985 10.9695 3.48634 11.0344 3.46066 11.0949C3.43498 11.1554 3.39765 11.2102 3.35078 11.2563C3.30392 11.3023 3.24844 11.3387 3.18752 11.3633C3.1266 11.3879 3.06143 11.4002 2.99574 11.3997C2.93004 11.3991 2.8651 11.3856 2.80462 11.3599C2.74415 11.3342 2.68933 11.2969 2.64328 11.25C1.26715 9.84905 0.496094 7.96378 0.496094 6.00001C0.496094 4.03623 1.26715 2.15096 2.64328 0.750007C2.68881 0.701325 2.74362 0.662239 2.80448 0.635047C2.86534 0.607855 2.93102 0.593107 2.99766 0.591669C3.06431 0.590231 3.13056 0.602134 3.19254 0.626676C3.25451 0.651218 3.31096 0.687904 3.35855 0.734578C3.40614 0.781251 3.44391 0.836969 3.46966 0.898455C3.4954 0.959941 3.50859 1.02595 3.50845 1.09261C3.50831 1.15927 3.49484 1.22523 3.46883 1.2866C3.44283 1.34798 3.40482 1.40354 3.35703 1.45001C2.16532 2.66416 1.49768 4.29748 1.49768 5.99876C1.49768 7.70003 2.16532 9.33336 3.35703 10.5475V10.5488Z" fill="#1C1C1C"/>
</svg>
